<?xml version="1.0" encoding="UTF-8" standalone="no"?>
<!DOCTYPE svg PUBLIC "-//W3C//DTD SVG 1.1//EN"
 "http://www.w3.org/Graphics/SVG/1.1/DTD/svg11.dtd">
<!-- Generated by graphviz version 8.0.5 (20230430.1635)
 -->
<!-- Pages: 1 -->
<svg width="135pt" height="157pt"
 viewBox="0.00 0.00 134.50 157.23" xmlns="http://www.w3.org/2000/svg" xmlns:xlink="http://www.w3.org/1999/xlink">
<g id="graph0" class="graph" transform="scale(1 1) rotate(0) translate(4 153.23)">
<polygon fill="white" stroke="none" points="-4,4 -4,-153.23 130.5,-153.23 130.5,4 -4,4"/>
<!-- &#45;1 -->
<g id="node1" class="node">
<title>&#45;1</title>
<polygon fill="lightgray" stroke="black" points="23.5,-149.23 0,-149.23 0,-129.98 23.5,-129.98 23.5,-149.23"/>
<text text-anchor="middle" x="11.75" y="-136.68" font-family="Times New Roman,serif" font-size="9.00">&#45;1</text>
</g>
<!-- 0 -->
<g id="node4" class="node">
<title>0</title>
<ellipse fill="lightblue" stroke="black" cx="53.75" cy="-14.5" rx="14.5" ry="14.5"/>
<text text-anchor="middle" x="53.75" y="-11.57" font-family="Times New Roman,serif" font-size="9.00">0</text>
</g>
<!-- &#45;1&#45;&gt;0 -->
<g id="edge1" class="edge">
<title>&#45;1&#45;&gt;0</title>
<path fill="none" stroke="green" stroke-dasharray="1,5" d="M9.38,-129.63C6.08,-115.39 1.39,-86.98 9.75,-64.99 14.76,-51.83 25.05,-39.93 34.42,-31.1"/>
<polygon fill="green" stroke="green" points="36.39,-34.14 41.59,-24.9 31.77,-28.88 36.39,-34.14"/>
</g>
<!-- 7 -->
<g id="node5" class="node">
<title>7</title>
<ellipse fill="white" stroke="black" cx="32.75" cy="-79.49" rx="14.5" ry="14.5"/>
<text text-anchor="middle" x="32.75" y="-76.56" font-family="Times New Roman,serif" font-size="9.00">7</text>
</g>
<!-- &#45;1&#45;&gt;7 -->
<g id="edge4" class="edge">
<title>&#45;1&#45;&gt;7</title>
<path fill="none" stroke="green" d="M15.03,-129.53C17.55,-122.55 21.15,-112.6 24.44,-103.48"/>
<polygon fill="green" stroke="green" points="27.98,-104.98 28.09,-94.39 21.4,-102.6 27.98,-104.98"/>
</g>
<!-- &#45;2 -->
<g id="node2" class="node">
<title>&#45;2</title>
<polygon fill="lightgray" stroke="black" points="75.5,-149.23 52,-149.23 52,-129.98 75.5,-129.98 75.5,-149.23"/>
<text text-anchor="middle" x="63.75" y="-136.68" font-family="Times New Roman,serif" font-size="9.00">&#45;2</text>
</g>
<!-- &#45;2&#45;&gt;0 -->
<g id="edge2" class="edge">
<title>&#45;2&#45;&gt;0</title>
<path fill="none" stroke="green" d="M63.03,-129.75C61.53,-111.23 58,-67.81 55.75,-40.15"/>
<polygon fill="green" stroke="green" points="59.18,-40.06 54.88,-30.38 52.2,-40.63 59.18,-40.06"/>
</g>
<!-- &#45;2&#45;&gt;7 -->
<g id="edge6" class="edge">
<title>&#45;2&#45;&gt;7</title>
<path fill="none" stroke="green" d="M58.91,-129.53C55,-122.21 49.36,-111.62 44.31,-102.15"/>
<polygon fill="green" stroke="green" points="46.97,-100.71 39.17,-93.53 40.79,-104 46.97,-100.71"/>
</g>
<!-- &#45;3 -->
<g id="node3" class="node">
<title>&#45;3</title>
<polygon fill="lightgray" stroke="black" points="126.5,-89.11 103,-89.11 103,-69.86 126.5,-69.86 126.5,-89.11"/>
<text text-anchor="middle" x="114.75" y="-76.56" font-family="Times New Roman,serif" font-size="9.00">&#45;3</text>
</g>
<!-- &#45;3&#45;&gt;0 -->
<g id="edge3" class="edge">
<title>&#45;3&#45;&gt;0</title>
<path fill="none" stroke="red" d="M106.01,-69.46C96.89,-60.05 82.36,-45.04 70.93,-33.23"/>
<polygon fill="red" stroke="red" points="73.75,-31.08 64.28,-26.33 68.72,-35.95 73.75,-31.08"/>
</g>
<!-- 7&#45;&gt;0 -->
<g id="edge5" class="edge">
<title>7&#45;&gt;0</title>
<path fill="none" stroke="green" d="M37.1,-65.44C39.66,-57.75 42.98,-47.8 45.98,-38.81"/>
<polygon fill="green" stroke="green" points="49.56,-40.12 49.4,-29.53 42.92,-37.91 49.56,-40.12"/>
</g>
</g>
</svg>
